<?xml version="1.0" encoding="UTF-8" standalone="no"?>
<!-- Created with Inkscape (http://www.inkscape.org/) -->

<svg
   xmlns:osb="http://www.openswatchbook.org/uri/2009/osb"
   xmlns:dc="http://purl.org/dc/elements/1.1/"
   xmlns:cc="http://creativecommons.org/ns#"
   xmlns:rdf="http://www.w3.org/1999/02/22-rdf-syntax-ns#"
   xmlns:svg="http://www.w3.org/2000/svg"
   xmlns="http://www.w3.org/2000/svg"
   xmlns:xlink="http://www.w3.org/1999/xlink"
   xmlns:sodipodi="http://sodipodi.sourceforge.net/DTD/sodipodi-0.dtd"
   xmlns:inkscape="http://www.inkscape.org/namespaces/inkscape"
   version="1.1"
   id="svg3767"
   xml:space="preserve"
   width="793.70667"
   height="793.70667"
   viewBox="0 0 793.70667 793.70667"
   sodipodi:docname="logo.svg"
   inkscape:version="0.92.5 (2060ec1f9f, 2020-04-08)"
   inkscape:export-filename="/home/mattb/fools100/website/static/logo.png"
   inkscape:export-xdpi="96"
   inkscape:export-ydpi="96"><metadata
     id="metadata3773"><rdf:RDF><cc:Work
         rdf:about=""><dc:format>image/svg+xml</dc:format><dc:type
           rdf:resource="http://purl.org/dc/dcmitype/StillImage" /><dc:title></dc:title></cc:Work></rdf:RDF></metadata><defs
     id="defs3771"><linearGradient
       id="linearGradient6480"
       osb:paint="solid"><stop
         style="stop-color:#000000;stop-opacity:1;"
         offset="0"
         id="stop6478" /></linearGradient><inkscape:perspective
       sodipodi:type="inkscape:persp3d"
       inkscape:vp_x="380.31815 : 360.85769 : 1"
       inkscape:vp_y="0 : 1000 : 0"
       inkscape:vp_z="748.75717 : 419.58062 : 1"
       inkscape:persp3d-origin="351.90384 : 287.29617 : 1"
       id="perspective4175" /></defs><sodipodi:namedview
     pagecolor="#ffffff"
     bordercolor="#666666"
     borderopacity="1"
     objecttolerance="10"
     gridtolerance="10"
     guidetolerance="10"
     inkscape:pageopacity="0"
     inkscape:pageshadow="2"
     inkscape:window-width="1848"
     inkscape:window-height="1016"
     id="namedview3769"
     showgrid="false"
     inkscape:zoom="1.17"
     inkscape:cx="271.14305"
     inkscape:cy="336.94567"
     inkscape:window-x="72"
     inkscape:window-y="27"
     inkscape:window-maximized="1"
     inkscape:current-layer="g3777" /><g
     id="g3775"
     inkscape:groupmode="layer"
     inkscape:label="ink_ext_XXXXXX"
     transform="matrix(1.3333333,0,0,-1.3333333,0,793.70667)"><g
       id="g3777"
       transform="matrix(0.1,0,0,0.1,-33.712122,17.045455)"
       style="display:inline"><path
         d="m 4245.52,2815.03 c 9.33,-22.7 49.57,-105.5 150.2,-137.79 -0.46,-5.03 -0.72,-10.01 -0.72,-14.92 -104.71,24.65 -161.41,115.58 -168.19,154.24 4.91,-0.56 11.28,-1.22 18.71,-1.53"
         style="fill:#ffffff;fill-opacity:1;fill-rule:nonzero;stroke:none"
         id="path3827"
         inkscape:connector-curvature="0"
         inkscape:export-xdpi="27.157324"
         inkscape:export-ydpi="27.157324" /><path
         d="m 1701.84,2647.78 c -9.31,-22.69 -49.56,-105.49 -150.19,-137.78 0.46,-5.02 0.72,-10.01 0.72,-14.92 104.71,24.65 161.41,115.57 168.18,154.24 -4.91,-0.56 -11.27,-1.23 -18.71,-1.54"
         style="fill:#ffffff;fill-opacity:1;fill-rule:nonzero;stroke:none"
         id="path3869"
         inkscape:connector-curvature="0"
         inkscape:export-xdpi="27.157324"
         inkscape:export-ydpi="27.157324" /><path
         d="m 4272.86,1629.9 c 0,0 -39,545.86 -200.53,846.64 -161.52,300.78 -189.37,256.22 -317.48,61.27 -128.12,-194.95 -222.8,77.98 -261.8,217.23 -38.98,139.25 -518,-200.52 -790.93,-506.87 -272.93,-306.35 -69.02,647.8 -597.07,131.74 -528.07,-516.07 -1041.91,-983.95 -703.53,-808.5 338.38,175.46 288.25,79.38 213.06,-91.9 -75.2,-171.27 25.06,-208.87 25.06,-208.87 0,0 848.03,204.7 960.83,225.58 112.79,20.89 822.96,150.39 990.06,142.04 167.1,-8.36 682.33,-8.36 682.33,-8.36"
         style="fill:#5e6061;fill-opacity:1;fill-rule:nonzero;stroke:none"
         id="path3991"
         inkscape:connector-curvature="0"
         inkscape:export-xdpi="27.157324"
         inkscape:export-ydpi="27.157324" /><path
         d="m 2509.95,1869.41 c 2.79,119.76 -175.45,61.27 -50.13,259 25.41,40.09 56.31,81.44 87.58,122.51 -62.56,149.65 -82.5,480.66 -442.35,128.99 -75.94,-74.22 -151.57,-147.41 -224.43,-217.86 -0.02,-0.07 -0.06,-0.14 -0.08,-0.22 -2.73,-7.89 -309.13,-428.88 -142.03,-339.76 167.1,89.12 105.83,-19.5 -25.07,-186.6 -19.7,-25.15 -42.18,-51.57 -65.41,-78.39 -9.4,-23.25 -21.08,-49.38 -33.45,-77.57 -75.2,-171.27 25.06,-208.87 25.06,-208.87 0,0 405.65,97.91 693.16,165.22 132.2,149.8 174.78,331.84 177.15,433.55"
         style="fill:#353332;fill-opacity:1;fill-rule:nonzero;stroke:none"
         id="path3993"
         inkscape:connector-curvature="0"
         inkscape:export-xdpi="27.157324"
         inkscape:export-ydpi="27.157324" /><path
         d="m 4072.33,2476.54 c -161.52,300.78 -189.37,256.22 -317.48,61.27 -128.12,-194.95 -222.8,77.98 -261.8,217.23 -29.56,105.59 -312.12,-64.26 -565.98,-286.1 -0.86,-6.7 -1.6,-13.44 -2.15,-20.25 0,0 -119.76,-353.69 91.9,-373.19 211.66,-19.5 431.67,94.69 490.16,208.87 58.49,114.19 409.39,233.95 275.71,61.27 -133.67,-172.67 -175.45,-264.57 8.36,-125.32 183.81,139.25 197.74,111.4 133.68,-97.47 -64.05,-208.88 -128.11,-247.87 33.42,-161.54 161.53,86.34 66.84,-192.16 66.84,-192.16 0,0 30.49,-69.45 81.13,-138.83 96.73,-0.42 166.74,-0.42 166.74,-0.42 0,0 -39,545.86 -200.53,846.64"
         style="fill:#353332;fill-opacity:1;fill-rule:nonzero;stroke:none"
         id="path3995"
         inkscape:connector-curvature="0"
         inkscape:export-xdpi="27.157324"
         inkscape:export-ydpi="27.157324" /><path
         d="m 1637.96,1690.38 c 19.18,0 31.58,-5.64 41.17,-14.63 35.25,-33.09 7.45,-96.24 -34.64,-191.81 l -6.48,-14.72 c -25.8,-58.76 -32.41,-107.38 -19.09,-140.59 6.84,-17.06 17.53,-26.4 24.16,-30.84 98,23.64 845.65,203.77 952.73,223.6 83.65,15.5 822.17,151.07 995.99,142.43 142.25,-7.11 543.66,-8.15 653.19,-8.3 -10.46,113.88 -58.59,554.52 -195.2,808.91 -50.32,93.68 -112.84,201.44 -150.05,203.08 -27.93,1.38 -69.6,-61.73 -121.98,-141.44 l -1.52,-2.31 c -38.58,-58.72 -79.94,-85.14 -122.92,-78.45 -70.44,10.96 -130.92,110.02 -184.91,302.83 -2.05,7.32 -5.5,10.55 -13.19,12.32 -101.68,23.59 -492.67,-258.44 -733.99,-529.32 -48.99,-54.96 -88.82,-76.92 -125.15,-69.16 -53.38,11.42 -75.03,79.9 -100.1,159.2 -25.44,80.5 -54.28,171.74 -115.04,186.94 -57.1,14.29 -143.9,-35.02 -258.01,-146.52 -84.58,-82.66 -168.26,-163.57 -249.17,-241.8 -238.4,-230.49 -484.01,-467.95 -542.46,-552.94 12.89,5 31.59,13.35 58.44,27.28 137.43,71.26 207.84,96.24 248.22,96.24 z m 0.04,-446.47 -7.35,2.76 c -3.97,1.49 -39.42,15.88 -58.37,60.77 -19.89,47.19 -13.55,108.54 18.86,182.36 l 6.5,14.77 c 21.79,49.46 51.47,116.86 46.08,133.84 -8.91,3.42 -49.92,3.87 -230.42,-89.71 -74.68,-38.74 -119.05,-54.35 -139.5,-25.9 -32.5,45.19 41.34,128.11 564.37,633.82 80.87,78.18 164.49,159.02 248.97,241.59 131.29,128.29 228.64,178.99 306.24,159.56 88.5,-22.15 121.93,-127.88 151.41,-221.16 17.7,-55.96 37.75,-119.39 61.99,-124.57 7.32,-1.53 29.29,0.48 76.22,53.16 216.09,242.54 640.34,578.37 783.75,545.13 25.8,-5.96 43.89,-23.16 50.95,-48.39 66.2,-236.46 126.55,-263.41 143.49,-266.04 26.6,-4.23 53.99,28.15 72.27,55.97 l 1.52,2.32 c 68.44,104.14 109.49,166.95 167.03,164.46 53.78,-2.38 100.64,-58.27 192.87,-230 162.26,-302.13 201.89,-834.42 203.51,-856.93 l 1.95,-27.42 h -27.49 c -5.16,0 -517.78,0.11 -683.6,8.4 -167.91,8.29 -901.07,-126.27 -984.13,-141.65 -110.83,-20.52 -951,-223.25 -959.47,-225.29 l -7.65,-1.85"
         style="fill:#211311;fill-opacity:1;fill-rule:nonzero;stroke:none"
         id="path3997"
         inkscape:connector-curvature="0"
         inkscape:export-xdpi="27.157324"
         inkscape:export-ydpi="27.157324" /><path
         d="m 1820.52,1584.41 c -6.69,-22.46 -3.98,-46.05 7.64,-66.42 l 194.25,-340.54 c 311.44,172.52 663.42,263.59 1019.66,263.59 356.24,0 708.22,-91.07 1019.66,-263.59 L 4255.97,1518 c 11.61,20.36 14.34,43.94 7.64,66.4 -6.78,22.77 -22.23,41.32 -43.51,52.23 -737.64,378 -1618.42,378 -2356.08,0 -21.27,-10.91 -36.72,-29.46 -43.5,-52.22"
         style="fill:#ec8215;fill-opacity:1;fill-rule:nonzero;stroke:none"
         id="path3999"
         inkscape:connector-curvature="0"
         inkscape:export-xdpi="27.157324"
         inkscape:export-ydpi="27.157324" /><path
         d="m 2171.37,1104.82 c 19.42,7.93 39.1,16.55 58.14,24.88 77.14,33.75 156.18,68.31 218.91,54.39 -12.62,42.67 -21.23,83.16 -25.99,108.02 -128.63,-40.51 -253.94,-93.94 -373.92,-160.34 17.36,-23.43 54.96,-54.66 122.86,-26.95"
         style="fill:#211311;fill-opacity:1;fill-rule:nonzero;stroke:none"
         id="path4003"
         inkscape:connector-curvature="0"
         inkscape:export-xdpi="27.157324"
         inkscape:export-ydpi="27.157324" /><path
         d="m 4095.02,1130.17 c -1.74,-3.92 -6.1,-12.96 -13.66,-23.93 l -0.02,-0.04 v 0 c -7.33,-10.64 -17.65,-23.03 -31.48,-34.19 -19.48,-15.72 -48.13,-30.68 -86.58,-30.68 -20.59,0 -43.99,4.28 -70.31,15.04 -20.01,8.18 -40,16.93 -59.32,25.37 -105.67,46.27 -174.14,72.18 -213.33,37.32 -1.73,-20.86 1.72,-36.89 10.59,-49.41 17.79,-25.06 61.34,-39.38 125.97,-41.37 178.78,-5.53 347.37,-21.75 585.84,-158.518 -3.98,68.027 -19.05,180.208 -26,227.238 l -2.09,14.04 10.65,9.41 c 3.26,2.88 33.56,27.86 167.75,91.21 -70.12,37.53 -204.24,102.38 -274.15,135.67 l -123.86,-217.16"
         style="fill:#ee2d21;fill-opacity:1;fill-rule:nonzero;stroke:none"
         id="path4005"
         inkscape:connector-curvature="0"
         inkscape:export-xdpi="27.157324"
         inkscape:export-ydpi="27.157324" /><path
         d="m 2250.49,1081.76 c -19.32,-8.46 -39.31,-17.21 -59.33,-25.39 -26.31,-10.75 -49.72,-15.04 -70.3,-15.04 -38.46,0 -67.09,14.96 -86.59,30.68 -13.82,11.16 -24.14,23.55 -31.47,34.2 l -0.01,-0.01 -0.05,0.09 c -7.54,10.94 -11.88,19.96 -13.62,23.88 l -123.87,217.16 c -69.89,-33.29 -204.01,-98.14 -274.15,-135.67 134.2,-63.35 164.48,-88.33 167.74,-91.21 l 10.66,-9.41 -2.08,-14.04 c -6.95,-47.03 -22.02,-159.211 -26.01,-227.238 238.47,136.768 407.06,152.988 585.84,158.518 64.63,1.99 108.19,16.31 125.98,41.37 8.88,12.52 12.32,28.55 10.59,49.41 -39.19,34.88 -107.67,8.93 -213.33,-37.3"
         style="fill:#ee2d21;fill-opacity:1;fill-rule:nonzero;stroke:none"
         id="path4007"
         inkscape:connector-curvature="0"
         inkscape:export-xdpi="27.157324"
         inkscape:export-ydpi="27.157324" /><path
         d="m 3912.76,1104.82 c 67.85,-27.71 105.49,3.53 122.86,26.95 -119.98,66.4 -245.29,119.83 -373.91,160.34 -4.76,-24.86 -13.37,-65.36 -26,-108.04 62.73,13.93 141.79,-20.61 218.93,-54.37 19.03,-8.33 38.72,-16.95 58.12,-24.88"
         style="fill:#211311;fill-opacity:1;fill-rule:nonzero;stroke:none"
         id="path4009"
         inkscape:connector-curvature="0"
         inkscape:export-xdpi="27.157324"
         inkscape:export-ydpi="27.157324" /><path
         d="m 4220.1,1636.63 c 21.28,-10.91 36.73,-29.46 43.51,-52.23 6.7,-22.46 3.97,-46.04 -7.64,-66.4 l -194.24,-340.55 c -311.44,172.52 -663.42,263.59 -1019.66,263.59 -356.24,0 -708.22,-91.07 -1019.66,-263.59 l -194.25,340.54 c -11.62,20.37 -14.33,43.96 -7.64,66.42 6.78,22.76 22.23,41.31 43.5,52.22 737.66,378 1618.44,378 2356.08,0 z m -584.39,-452.56 c 12.63,42.68 21.24,83.18 26,108.04 128.62,-40.51 253.93,-93.94 373.91,-160.34 -17.37,-23.42 -55.01,-54.66 -122.86,-26.95 -19.4,7.93 -39.09,16.55 -58.12,24.88 -77.14,33.76 -156.2,68.3 -218.93,54.37 z m 857.32,27.59 c -134.19,-63.35 -164.49,-88.33 -167.75,-91.21 l -10.65,-9.41 2.09,-14.04 c 6.95,-47.03 22.02,-159.211 26,-227.238 -238.47,136.768 -407.06,152.988 -585.84,158.518 -64.63,1.99 -108.18,16.31 -125.97,41.37 -8.87,12.52 -12.32,28.55 -10.59,49.41 39.19,34.86 107.66,8.95 213.33,-37.32 19.32,-8.44 39.31,-17.19 59.32,-25.37 26.32,-10.76 49.72,-15.04 70.31,-15.04 38.45,0 67.1,14.96 86.58,30.68 13.83,11.16 24.15,23.55 31.48,34.19 v 0 l 0.02,0.04 c 7.56,10.97 11.92,20.01 13.66,23.93 l 123.86,217.16 c 69.91,-33.29 204.03,-98.14 274.15,-135.67 z m -2444.52,-79.89 c 119.98,66.4 245.29,119.83 373.92,160.34 4.76,-24.86 13.37,-65.35 25.99,-108.02 -62.73,13.92 -141.77,-20.64 -218.91,-54.39 -19.04,-8.33 -38.72,-16.95 -58.14,-24.88 -67.9,-27.71 -105.5,3.52 -122.86,26.95 z m 404.72,-62.12 c -17.79,-25.06 -61.35,-39.38 -125.98,-41.37 -178.78,-5.53 -347.37,-21.75 -585.84,-158.518 3.99,68.027 19.06,180.208 26.01,227.238 l 2.08,14.04 -10.66,9.41 c -3.26,2.88 -33.54,27.86 -167.74,91.21 70.14,37.53 204.26,102.38 274.15,135.67 l 123.87,-217.16 c 1.74,-3.92 6.08,-12.94 13.62,-23.88 l 0.05,-0.09 0.01,0.01 c 7.33,-10.65 17.65,-23.04 31.47,-34.2 19.5,-15.72 48.13,-30.68 86.59,-30.68 20.58,0 43.99,4.29 70.3,15.04 20.02,8.18 40.01,16.93 59.33,25.39 105.66,46.23 174.14,72.18 213.33,37.3 1.73,-20.86 -1.71,-36.89 -10.59,-49.41 z m -682.87,529.7 c -10.8,-36.29 -6.42,-74.39 12.34,-107.28 l 56.55,-99.15 C 1771,1360.4 1557.04,1257.66 1519.24,1230.17 l -36.24,-26.35 40.78,-18.62 c 118.58,-54.13 169.8,-83.81 189.56,-96.49 -7.73,-54.11 -29.54,-214.698 -24.43,-267.538 l 4.03,-41.57 35.65,21.757 c 249.51,152.27 412.77,168.801 600.28,174.602 83.97,2.598 138.62,23.34 167.04,63.419 32.83,46.27 19.75,105.05 7.06,145.25 -15.3,48.42 -25.39,97.34 -30.13,122.7 371.28,106.5 767.17,106.5 1138.46,0 -4.73,-25.33 -14.81,-74.18 -30.13,-122.7 -12.7,-40.19 -25.77,-98.98 7.05,-145.25 28.43,-40.071 83.07,-60.821 167.04,-63.419 187.52,-5.801 350.78,-22.332 600.28,-174.602 l 35.66,-21.757 4.02,41.57 c 5.11,52.828 -16.69,213.368 -24.42,267.518 19.99,12.84 71.25,42.51 189.57,96.51 l 40.76,18.62 -36.23,26.35 c -37.79,27.49 -251.77,130.23 -320.01,162.75 l 56.55,99.15 c 18.76,32.89 23.14,70.98 12.34,107.27 -10.9,36.6 -35.7,66.38 -69.8,83.86 -376.3,192.84 -789.1,289.26 -1201.9,289.26 -412.82,0 -825.63,-96.42 -1201.93,-289.26 -34.1,-17.48 -58.89,-47.26 -69.79,-83.85"
         style="fill:#211311;fill-opacity:1;fill-rule:nonzero;stroke:none"
         id="path4011"
         inkscape:connector-curvature="0"
         inkscape:export-xdpi="27.157324"
         inkscape:export-ydpi="27.157324" /><path
         d="m 2383.31,2973.83 c -41.58,25 -63.65,71.39 -74.62,122.18 -0.96,-50.72 -0.71,-99.29 -0.49,-139.46 0.08,-15.3 0.15,-29.43 0.15,-42.08 0,-110.98 -38.84,-176.39 -88.01,-259.18 -6.53,-10.98 -13.26,-22.32 -20.15,-34.17 -34.98,-60.19 -51.17,-163.26 -64.2,-246.08 -8.16,-52.02 -15.22,-96.94 -25.46,-122.15 -3.31,-8.18 -6.46,-15.85 -9.42,-23.09 -18.84,-45.97 -30.21,-73.72 -30.21,-94.28 0,-17.23 -11.66,-42.89 -30.66,-83.32 -9.25,-19.65 -18.68,-39.75 -25.29,-57.14 46.49,8.09 103.76,-15.73 106.43,45.31 3.64,82.47 77.04,-38.98 85.2,12.68 8.15,51.66 2.71,147.73 -71.59,138.67 -74.32,-9.07 -21.76,33.52 57.09,135.93 78.84,102.41 121.44,218.42 58.9,156.79 -62.53,-61.63 -110.56,-48.94 -11.77,36.25 98.77,85.19 199.37,280.95 121.43,207.54 -77.94,-73.41 -108.75,-81.56 -38.06,14.5 70.69,96.07 185.79,155.88 60.73,231.1"
         style="fill:#5e6061;fill-opacity:1;fill-rule:nonzero;stroke:none"
         id="path4013"
         inkscape:connector-curvature="0"
         inkscape:export-xdpi="27.157324"
         inkscape:export-ydpi="27.157324" /><path
         d="m 2930.91,3975.05 c -41.85,-22 -178.53,-93.49 -231.84,-117.16 -0.86,-9.42 -1.93,-18.8 -3.21,-27.95 63.88,26.28 199.52,80.74 245.48,99.18 -2.68,15.16 -6.26,30.78 -10.43,45.93"
         style="fill:#ffffff;fill-opacity:1;fill-rule:nonzero;stroke:none"
         id="path4015"
         inkscape:connector-curvature="0"
         inkscape:export-xdpi="27.157324"
         inkscape:export-ydpi="27.157324" /><path
         d="m 2506.78,4368.37 c 135.27,121.67 162.45,120.99 152.93,135.94 -9.51,14.95 -144.77,37.38 -231.09,-10.2 -37.1,-20.44 -62.62,-36.48 -79.7,-48.14 -10.79,-18.19 -22.15,-38.44 -34.27,-61.18 -52.38,-98.33 -88.79,-231.76 -109.19,-342.85 22.25,-2.71 66.84,-3.07 121.88,23.28 79.52,38.06 44.18,181.48 179.44,303.15"
         style="fill:#5e6061;fill-opacity:1;fill-rule:nonzero;stroke:none"
         id="path4017"
         inkscape:connector-curvature="0"
         inkscape:export-xdpi="27.157324"
         inkscape:export-ydpi="27.157324" /><path
         d="m 2700.93,3883.39 c 54.02,25.15 175.32,81.94 225.92,105.63 -3.2,10.5 -6.63,20.62 -10.2,29.98 -31.95,83.6 -19.04,188.28 43.5,248.09 14.28,13.66 29.02,22.25 43.25,27.43 -18.28,14.15 -55.55,34.58 -121.42,38.5 -102.64,6.12 -112.83,-40.1 -127.1,-94.48 -14.28,-54.37 -50.98,-118.95 -23.79,-230.42 27.19,-111.47 -38.07,30.59 -31.27,-34.67 2.37,-22.78 3,-55.68 1.11,-90.06"
         style="fill:#ec8215;fill-opacity:1;fill-rule:nonzero;stroke:none"
         id="path4019"
         inkscape:connector-curvature="0"
         inkscape:export-xdpi="27.157324"
         inkscape:export-ydpi="27.157324" /><path
         d="m 2964.68,4471 c 52.11,-20.39 64.8,-21.3 79.75,-9.51 14.95,11.78 5.44,-33.53 -41.69,-19.49 -47.12,14.05 -94.25,41.69 -127.78,25.83 -33.54,-15.86 10.88,0.91 43.5,-13.14 32.63,-14.05 40.78,-28.55 62.53,-29.91 21.75,-1.36 24.48,-24.47 -31.27,-4.08 -41.8,15.3 -64.74,16.57 -82.59,14.15 18.46,-4.93 39.02,-13.57 57.22,-28.65 47.58,-39.42 103.31,-43.95 139.11,-43.5 19.83,0.26 39.36,2.17 52.85,3.83 8.7,18.77 15.31,40.47 15.08,66.27 -0.44,51.83 -24.34,124.6 -69.18,163.39 -26.37,22.82 -57.49,31.97 -92.47,27.17 -82.94,-11.33 -112.67,-97.68 -127.14,-149.1 4.37,2.05 9.71,4.91 16.5,8.98 40.78,24.47 53.46,8.15 105.58,-12.24"
         style="fill:#5e6061;fill-opacity:1;fill-rule:nonzero;stroke:none"
         id="path4021"
         inkscape:connector-curvature="0"
         inkscape:export-xdpi="27.157324"
         inkscape:export-ydpi="27.157324" /><path
         d="m 3033.85,4301.01 c 18.13,1.32 33.9,-1.76 44.75,-4.98 2.97,10.44 9.56,21.31 17.34,33.97 3.86,6.28 7.94,12.95 11.92,20.05 -31.86,-0.53 -94.57,-0.83 -115.54,4.5 -23.4,5.94 23.22,-33.78 41.53,-53.54"
         style="fill:#e4892b;fill-opacity:1;fill-rule:nonzero;stroke:none"
         id="path4023"
         inkscape:connector-curvature="0"
         inkscape:export-xdpi="27.157324"
         inkscape:export-ydpi="27.157324" /><path
         d="m 2615.53,3533 c -160.69,0 -235.15,-14.29 -264.98,-22.64 -3.59,-20.19 -6.1,-41.06 -6.47,-61.08 44.34,-12.69 175.94,-45.27 331.27,-35.9 191.68,11.55 167.2,119.62 -59.82,119.62"
         style="fill:#5e6061;fill-opacity:1;fill-rule:nonzero;stroke:none"
         id="path4025"
         inkscape:connector-curvature="0"
         inkscape:export-xdpi="27.157324"
         inkscape:export-ydpi="27.157324" /><path
         d="m 3379.78,2424.51 c -4.83,1.98 -13.9,-2.06 -21.9,-5.64 -10.47,-4.67 -21.32,-9.5 -32.58,-6.05 -6.31,1.94 -10.24,5 -12.66,8.86 -25.33,-16.42 -54.01,-18.11 -28.95,-20.39 37.38,-3.4 -38.74,-128.47 59.81,-75.45 29.77,16.01 45.88,36.98 54.42,58.64 -1.73,8.01 -4.3,16.42 -7.82,25.33 -3.18,8.07 -6.84,13.29 -10.32,14.7"
         style="fill:#5e6061;fill-opacity:1;fill-rule:nonzero;stroke:none"
         id="path4027"
         inkscape:connector-curvature="0"
         inkscape:export-xdpi="27.157324"
         inkscape:export-ydpi="27.157324" /><path
         d="m 2854.45,3863.21 c 13.12,-6.62 28.42,-15.42 44.52,-25.69 42.63,-27.21 52.02,13.01 45.89,67.61 -21.2,-9.92 -54.32,-25.36 -90.41,-41.92"
         style="fill:#ee2d21;fill-opacity:1;fill-rule:nonzero;stroke:none"
         id="path4029"
         inkscape:connector-curvature="0"
         inkscape:export-xdpi="27.157324"
         inkscape:export-ydpi="27.157324" /><path
         d="m 2852.75,3823.24 c -11.45,10.89 -20.09,19.82 -26.41,27.13 -53.87,-24.51 -109.07,-48.95 -137.85,-59.71 -6.77,-27.77 -16.36,-49.86 -29.45,-59.18 -40.11,-28.55 -192.36,-87.68 -232.46,-99.92 -18.95,-5.78 -34.34,-6.08 -45.37,-4.81 l -0.12,-0.37 c -0.78,-2.58 -1.85,-5.99 -3.15,-10.1 -5.4,-17.09 -14.78,-46.77 -22.31,-80.61 66.66,28.3 285.64,37.15 439.35,21.12 176.04,-18.35 87.68,16.32 -9.51,83.61 -97.2,67.29 -129.83,89.72 -68.66,75.45 61.17,-14.28 210.03,-96.52 129.14,-21.07 -80.88,75.44 -46.89,66.61 42.83,37.38 89.72,-29.23 44.86,14.27 -36.03,91.08"
         style="fill:#ee2d21;fill-opacity:1;fill-rule:nonzero;stroke:none"
         id="path4031"
         inkscape:connector-curvature="0"
         inkscape:export-xdpi="27.157324"
         inkscape:export-ydpi="27.157324" /><path
         d="m 3248.8,3582.85 c 15.28,12.79 53.03,16.34 75.12,17.31 -1.53,10.61 -5.82,25 -12.74,47.36 -12.67,40.9 -31.81,102.71 -51.06,207.55 -28.31,154.24 -109.5,292.59 -153.11,366.91 -18.09,30.82 -26.62,45.6 -29.17,55.34 -29.81,4.5 -87.38,4.74 -116.33,-51.69 -40.11,-78.17 14.95,-154.3 144.09,-290.24 129.15,-135.94 121,-371.12 143.2,-352.54"
         style="fill:#ec8215;fill-opacity:1;fill-rule:nonzero;stroke:none"
         id="path4033"
         inkscape:connector-curvature="0"
         inkscape:export-xdpi="27.157324"
         inkscape:export-ydpi="27.157324" /><path
         d="m 3343.5,2325.84 c -98.55,-53.02 -22.43,72.05 -59.81,75.45 -25.06,2.28 3.62,3.97 28.95,20.39 2.42,-3.86 6.35,-6.92 12.66,-8.86 11.26,-3.45 22.11,1.38 32.58,6.05 8,3.58 17.07,7.62 21.9,5.64 3.48,-1.41 7.14,-6.63 10.32,-14.7 3.52,-8.91 6.09,-17.32 7.82,-25.33 -8.54,-21.66 -24.65,-42.63 -54.42,-58.64 z m -381.99,1899.79 c 28.95,56.43 86.52,56.19 116.33,51.69 2.55,-9.74 11.08,-24.52 29.17,-55.34 43.61,-74.32 124.8,-212.67 153.11,-366.91 19.25,-104.84 38.39,-166.65 51.06,-207.55 6.92,-22.36 11.21,-36.75 12.74,-47.36 -22.09,-0.97 -59.84,-4.52 -75.12,-17.31 -22.2,-18.58 -14.05,216.6 -143.2,352.54 -129.14,135.94 -184.2,212.07 -144.09,290.24 z m -62.54,-388.11 c -16.1,10.27 -31.4,19.07 -44.52,25.69 36.09,16.56 69.21,32 90.41,41.92 6.13,-54.6 -3.26,-94.82 -45.89,-67.61 z m -10.19,-105.36 c -89.72,29.23 -123.71,38.06 -42.83,-37.38 80.89,-75.45 -67.97,6.79 -129.14,21.07 -61.17,14.27 -28.54,-8.16 68.66,-75.45 97.19,-67.29 185.55,-101.96 9.51,-83.61 -153.71,16.03 -372.69,7.18 -439.35,-21.12 7.53,33.84 16.91,63.52 22.31,80.61 1.3,4.11 2.37,7.52 3.15,10.1 l 0.12,0.37 c 11.03,-1.27 26.42,-0.97 45.37,4.81 40.1,12.24 192.35,71.37 232.46,99.92 13.09,9.32 22.68,31.41 29.45,59.18 28.78,10.76 83.98,35.2 137.85,59.71 6.32,-7.31 14.96,-16.24 26.41,-27.13 80.89,-76.81 125.75,-120.31 36.03,-91.08 z m -213.43,-318.78 c -155.33,-9.37 -286.93,23.21 -331.27,35.9 0.37,20.02 2.88,40.89 6.47,61.08 29.83,8.35 104.29,22.64 264.98,22.64 227.02,0 251.5,-108.07 59.82,-119.62 z m -352.77,-670.65 c -70.69,-96.06 -39.88,-87.91 38.06,-14.5 77.94,73.41 -22.66,-122.35 -121.43,-207.54 -98.79,-85.19 -50.76,-97.88 11.77,-36.25 62.54,61.63 19.94,-54.38 -58.9,-156.79 -78.85,-102.41 -131.41,-145 -57.09,-135.93 74.3,9.06 79.74,-87.01 71.59,-138.67 -8.16,-51.66 -81.56,69.79 -85.2,-12.68 -2.67,-61.04 -59.94,-37.22 -106.43,-45.31 6.61,17.39 16.04,37.49 25.29,57.14 19,40.43 30.66,66.09 30.66,83.32 0,20.56 11.37,48.31 30.21,94.28 2.96,7.24 6.11,14.91 9.42,23.09 10.24,25.21 17.3,70.13 25.46,122.15 13.03,82.82 29.22,185.89 64.2,246.08 6.89,11.85 13.62,23.19 20.15,34.17 49.17,82.79 88.01,148.2 88.01,259.18 0,12.65 -0.07,26.78 -0.15,42.08 -0.22,40.17 -0.47,88.74 0.49,139.46 10.97,-50.79 33.04,-97.18 74.62,-122.18 125.06,-75.22 9.96,-135.03 -60.73,-231.1 z m 4.76,1322.49 c -55.04,-26.35 -99.63,-25.99 -121.88,-23.28 20.4,111.09 56.81,244.52 109.19,342.85 12.12,22.74 23.48,42.99 34.27,61.18 17.08,11.66 42.6,27.7 79.7,48.14 86.32,47.58 221.58,25.15 231.09,10.2 9.52,-14.95 -17.66,-14.27 -152.93,-135.94 -135.26,-121.67 -99.92,-265.09 -179.44,-303.15 z m 371.73,-207.33 c 53.31,23.67 189.99,95.16 231.84,117.16 4.17,-15.15 7.75,-30.77 10.43,-45.93 -45.96,-18.44 -181.6,-72.9 -245.48,-99.18 1.28,9.15 2.35,18.53 3.21,27.95 z m 32.02,150.23 c -27.19,111.47 9.51,176.05 23.79,230.42 14.27,54.38 24.46,100.6 127.1,94.48 65.87,-3.92 103.14,-24.35 121.42,-38.5 -14.23,-5.18 -28.97,-13.77 -43.25,-27.43 -62.54,-59.81 -75.45,-164.49 -43.5,-248.09 3.57,-9.36 7,-19.48 10.2,-29.98 -50.6,-23.69 -171.9,-80.48 -225.92,-105.63 1.89,34.38 1.26,67.28 -1.11,90.06 -6.8,65.26 58.46,-76.8 31.27,34.67 z m 376.77,341.93 c -3.98,-7.1 -8.06,-13.77 -11.92,-20.05 -7.78,-12.66 -14.37,-23.53 -17.34,-33.97 -10.85,3.22 -26.62,6.3 -44.75,4.98 -18.31,19.76 -64.93,59.48 -41.53,53.54 20.97,-5.33 83.68,-5.03 115.54,-4.5 z m -138.12,273.31 c 34.98,4.8 66.1,-4.35 92.47,-27.17 44.84,-38.79 68.74,-111.56 69.18,-163.39 0.23,-25.8 -6.38,-47.5 -15.08,-66.27 -13.49,-1.66 -33.02,-3.57 -52.85,-3.83 -35.8,-0.45 -91.53,4.08 -139.11,43.5 -18.2,15.08 -38.76,23.72 -57.22,28.65 17.85,2.42 40.79,1.15 82.59,-14.15 55.75,-20.39 53.02,2.72 31.27,4.08 -21.75,1.36 -29.9,15.86 -62.53,29.91 -32.62,14.05 -77.04,-2.72 -43.5,13.14 33.53,15.86 80.66,-11.78 127.78,-25.83 47.13,-14.04 56.64,31.27 41.69,19.49 -14.95,-11.79 -27.64,-10.88 -79.75,9.51 -52.12,20.39 -64.8,36.71 -105.58,12.24 -6.79,-4.07 -12.13,-6.93 -16.5,-8.98 14.47,51.42 44.2,137.77 127.14,149.1 z m 421.89,-2169.83 c -17.25,7.05 -34.17,-0.53 -46.53,-6.03 -1.23,-0.55 -2.64,-1.19 -4.08,-1.8 0.06,0.61 0.11,1.23 0.18,1.85 2.97,32.31 10.86,118.15 -10.64,352.8 -36.39,397.27 -202.44,536.97 -257.01,582.88 -63.22,53.18 -80.58,106.61 -53.08,163.33 11.41,23.52 13.76,51.75 16.26,81.63 2.72,32.45 5.79,69.23 20.89,106.98 14.81,37.03 16.54,84.11 17.8,118.49 0.22,5.98 0.46,12.52 0.79,18.56 34.69,-59.54 97.27,-241.71 104.94,-300.46 4.87,-37.36 14.52,-47.33 24.8,-54.98 0.67,-0.49 1.33,-0.9 1.55,-0.99 0.05,-0.09 1,-2.34 0.72,-10.79 -0.7,-20.09 1.25,-65.33 4.41,-102.97 6.68,-79.16 14.09,-86.89 25.48,-90.2 6.12,-1.79 15.3,-0.41 21.03,9.31 6.1,10.4 9.23,26.91 12.54,44.4 1.97,10.46 5.02,26.53 8.31,34.88 9.68,-14.52 11,-64.19 11.52,-83.86 0.76,-28.68 0.99,-37.34 10.51,-43.04 4.85,-2.92 10.8,-3.13 15.87,-0.58 9.51,4.75 38.42,19.21 62.48,106.36 13.46,48.82 -4.32,93.55 -18.61,129.5 -9.12,22.93 -17.72,44.59 -12.4,55.26 12.64,25.28 5.67,47.82 -8.25,92.73 -12.44,40.19 -31.25,100.92 -50.16,203.94 -29.31,159.68 -112.32,301.12 -156.91,377.11 -12.08,20.58 -24.57,41.86 -25.81,46.93 -0.59,4.41 8.09,18.52 14.42,28.82 17.11,27.85 40.55,66 40.09,119.49 -0.49,57.05 -25.73,139.85 -80.02,186.81 -33.48,28.96 -72.95,40.58 -117.22,34.53 -110.62,-15.11 -142.81,-133.72 -156.56,-184.37 -0.42,-1.52 -0.84,-3.09 -1.27,-4.64 -4.09,10.07 -8.68,28.48 -9.26,58.91 -0.79,41.55 -20.1,65.67 -36.17,78.58 -24.49,19.69 -59.76,27.91 -92,21.45 -14.94,-2.98 -25.52,0.05 -40.15,4.25 -22.59,6.5 -50.74,14.57 -104.87,5.35 -96.69,-16.49 -150.12,-69.07 -238.22,-234.42 -89.48,-167.95 -133.72,-435.83 -132.35,-532.33 1.45,-101.23 66.16,-183.49 192.4,-244.67 -13.23,-41.91 -44.19,-142.84 -31.2,-218.34 -40.8,-102.32 -39.67,-318.11 -39,-447.8 0.08,-15.25 0.16,-29.32 0.16,-41.92 0,-102.38 -35.08,-161.44 -83.62,-243.17 -6.58,-11.07 -13.36,-22.5 -20.3,-34.44 -37.93,-65.26 -54.63,-171.55 -68.04,-256.95 -7.89,-50.1 -14.69,-93.37 -23.56,-115.25 -3.3,-8.12 -6.44,-15.77 -9.38,-22.97 -20.31,-49.54 -32.55,-79.44 -32.55,-106.17 0,-11.1 -15.35,-43.75 -27.69,-69.98 -13.36,-28.41 -27.17,-57.77 -33.4,-80.91 -7.54,-28 1.98,-60.89 24.85,-85.83 18.14,-19.8 40.7,-30.51 62.26,-29.68 1.36,-3.09 1.92,-8.98 2.48,-16.43 1.43,-18.99 3.84,-50.81 42.28,-62.91 9.88,-3.11 23.17,-4.38 38.31,-4.38 63.9,0 160.79,22.69 173.96,25.85 l 8.52,2.04 2.72,8.32 c 10.79,33.03 -8.22,64.28 -26.62,94.51 -13.33,21.9 -27.11,44.55 -30.3,67.91 -4.46,32.72 10.63,80.12 28.12,135 11.69,36.72 24.95,78.35 34.21,121.99 14.07,66.13 53.29,171.98 98.72,294.55 28.57,77.08 58.11,156.78 85.68,237.91 38.46,113.2 69.92,197.51 96.2,257.79 40.74,93.44 59.33,105.65 63.16,107.23 57.31,-19.39 304.56,-124.87 336.93,-181.51 28.11,-49.19 28.41,-252.26 28.55,-361.36 0.05,-31.64 0.09,-58.96 0.66,-77.25 2.61,-83.48 -19.88,-280.9 -26.84,-312.91 -3.15,-14.52 2.19,-24.41 7.21,-30.15 15.72,-17.95 52.67,-23.14 123.57,-17.35 52.5,4.28 72.29,23.35 97.33,47.5 9.21,8.9 19.59,18.89 33.12,29.57 69.42,13.65 115.06,39.5 135.69,76.85 16.72,30.28 16.72,67.1 0.01,109.42 -6.63,16.8 -15.66,27.35 -27.62,32.22"
         style="fill:#211311;fill-opacity:1;fill-rule:nonzero;stroke:none"
         id="path4035"
         inkscape:connector-curvature="0"
         inkscape:export-xdpi="27.157324"
         inkscape:export-ydpi="27.157324" /><path
         d="m 3003.4,4294.52 c -7.6,5.89 -18.57,12.86 -33.46,19.28 -19.65,-12.17 -42.95,-33.15 -65.53,-68.46 -53.02,-82.93 -81.56,-296.35 -122.34,-145.46 -33.05,122.27 55.27,206.14 89.99,233.57 -93.38,2.6 -103.38,-42.34 -117.18,-94.91 -14.28,-54.37 -50.98,-118.95 -23.79,-230.42 27.19,-111.47 -38.07,30.59 -31.27,-34.67 2.37,-22.78 3,-55.68 1.11,-90.06 54.02,25.15 175.32,81.94 225.92,105.63 -3.2,10.5 -6.63,20.62 -10.2,29.98 -31.95,83.6 -19.04,188.28 43.5,248.09 14.28,13.66 29.02,22.25 43.25,27.43"
         style="fill:#ee2d21;fill-opacity:1;fill-rule:nonzero;stroke:none"
         id="path4037"
         inkscape:connector-curvature="0"
         inkscape:export-xdpi="27.157324"
         inkscape:export-ydpi="27.157324" /><path
         d="m 2645.96,3532.24 c 21.18,-29.1 40.52,-82.53 -101.79,-83.52 -81.68,-0.57 -149.11,0.76 -200.01,2.5 -0.01,-0.64 -0.07,-1.3 -0.08,-1.94 44.34,-12.69 175.94,-45.27 331.27,-35.9 182.69,11.01 168.87,109.63 -29.39,118.86"
         style="fill:#353332;fill-opacity:1;fill-rule:nonzero;stroke:none"
         id="path4039"
         inkscape:connector-curvature="0"
         inkscape:export-xdpi="27.157324"
         inkscape:export-ydpi="27.157324" /><path
         d="m 3248.8,3582.85 c 9.21,7.71 26.62,12.05 43.82,14.5 -7.57,19.56 -16.16,44.16 -25.7,75.22 -42.59,138.66 -90.62,202.1 -111.46,268.26 -20.85,66.16 51.65,-46.22 32.62,14.5 -19.03,60.72 -96.07,142.28 -182.17,220.23 -28.41,25.72 -38.6,44.6 -39.58,58.39 -1.67,-2.65 -3.31,-5.36 -4.82,-8.32 -40.11,-78.17 14.95,-154.3 144.09,-290.24 129.15,-135.94 121,-371.12 143.2,-352.54"
         style="fill:#ee2d21;fill-opacity:1;fill-rule:nonzero;stroke:none"
         id="path4041"
         inkscape:connector-curvature="0"
         inkscape:export-xdpi="27.157324"
         inkscape:export-ydpi="27.157324" /><path
         d="m 3063.46,4362.7 c 19.83,0.26 39.36,2.17 52.85,3.83 8.7,18.77 15.31,40.47 15.08,66.27 -0.44,51.83 -24.34,124.6 -69.18,163.39 -22.07,19.09 -47.51,28.48 -75.72,28.27 32.45,-18.63 105.74,-70.38 100.09,-155.27 -5.47,-81.97 -79.91,-48.11 -143.8,-27.23 14.62,-9.01 23.17,-16.24 38.21,-17.18 21.75,-1.36 24.48,-24.47 -31.27,-4.08 -41.8,15.3 -64.74,16.57 -82.59,14.15 18.46,-4.93 39.02,-13.57 57.22,-28.65 47.58,-39.42 103.31,-43.95 139.11,-43.5"
         style="fill:#353332;fill-opacity:1;fill-rule:nonzero;stroke:none"
         id="path4043"
         inkscape:connector-curvature="0"
         inkscape:export-xdpi="27.157324"
         inkscape:export-ydpi="27.157324" /><path
         d="m 3723.34,2364.15 c -2.76,2.53 -6.37,4.4 -10.22,4.23 -1.28,-0.17 -2.56,-0.35 -3.84,-0.51 -2.45,-0.7 -4.57,-1.93 -6.37,-3.72 -12.8,-10.34 -23.31,-24.1 -29.87,-39.19 -1.61,-3.7 -2.57,-7.07 -1.45,-11.14 0.92,-3.35 3.5,-6.98 6.63,-8.63 3.36,-1.77 7.42,-2.65 11.13,-1.45 3.34,1.07 7.18,3.28 8.64,6.64 2.93,6.75 6.71,13.08 11.1,18.99 4.26,5.26 8.98,10.1 14.25,14.35 2.7,2.17 4.23,6.9 4.23,10.21 0,3.55 -1.57,7.78 -4.23,10.22"
         style="fill:#353332;fill-opacity:1;fill-rule:nonzero;stroke:none"
         id="path4045"
         inkscape:connector-curvature="0"
         inkscape:export-xdpi="27.157324"
         inkscape:export-ydpi="27.157324" /><path
         d="m 3629.52,2231.98 c -18.6,0 -18.63,-28.89 0,-28.89 18.59,0 18.62,28.89 0,28.89"
         style="fill:#353332;fill-opacity:1;fill-rule:nonzero;stroke:none"
         id="path4047"
         inkscape:connector-curvature="0"
         inkscape:export-xdpi="27.157324"
         inkscape:export-ydpi="27.157324" /><path
         d="m 3842.3,2180.52 c -48.46,-52.8 -116.09,-80.44 -181.3,-106.45 -7.21,-2.87 -12.36,-9.66 -10.09,-17.77 1.93,-6.87 10.46,-13 17.77,-10.09 69.81,27.85 142.14,57.31 194.05,113.88 12.55,13.69 -7.83,34.17 -20.43,20.43"
         style="fill:#353332;fill-opacity:1;fill-rule:nonzero;stroke:none"
         id="path4049"
         inkscape:connector-curvature="0"
         inkscape:export-xdpi="27.157324"
         inkscape:export-ydpi="27.157324" /><path
         d="m 3601.48,2065.05 c -1.13,3.49 -3.29,6.88 -6.64,8.64 -1.68,0.88 -3.46,1.58 -5.21,2.28 -0.7,0.29 -1.4,0.53 -2.11,0.74 -0.72,0.19 -1.45,0.36 -2.18,0.48 -1.95,0.33 -3.94,0.63 -5.92,0.76 -2.69,0.16 -5.37,-0.29 -8.02,-0.69 -1.52,-0.23 -3,-0.62 -4.43,-1.18 -1.89,-0.45 -3.53,-1.31 -4.91,-2.59 -1.58,-1.01 -2.83,-2.36 -3.72,-4.05 -1.07,-1.66 -1.63,-3.45 -1.72,-5.37 -0.43,-1.93 -0.34,-3.84 0.25,-5.76 1.13,-3.5 3.3,-6.87 6.64,-8.64 1.15,-0.48 2.31,-0.96 3.46,-1.45 2.56,-0.69 5.12,-0.69 7.67,0 0.84,0.33 1.73,0.47 2.6,0.68 0.58,0.02 1.15,0.02 1.73,0 0.77,-0.18 1.54,-0.36 2.3,-0.63 1.37,-0.71 2.81,-1.17 4.36,-1.24 1.92,-0.43 3.84,-0.35 5.76,0.25 1.88,0.45 3.52,1.31 4.91,2.59 1.58,1.01 2.82,2.36 3.73,4.05 1.76,3.35 2.65,7.41 1.45,11.13"
         style="fill:#353332;fill-opacity:1;fill-rule:nonzero;stroke:none"
         id="path4051"
         inkscape:connector-curvature="0"
         inkscape:export-xdpi="27.157324"
         inkscape:export-ydpi="27.157324" /><path
         d="m 2690.36,2047.75 c -4.06,6.94 -12.87,8.89 -19.77,5.18 -17.67,-9.5 -40.2,-10.59 -58.17,-2.73 -9.43,4.12 -17.12,9.74 -21.64,16.86 -5.02,7.9 -6,16.45 -1.84,23.67 3.9,6.76 1.58,15.81 -5.18,19.76 -6.73,3.94 -15.86,1.6 -19.77,-5.18 -17.42,-30.25 2.64,-64.34 30.86,-78.62 28.39,-14.38 62.34,-13.73 90.32,1.29 6.88,3.69 9.03,13.21 5.19,19.77"
         style="fill:#353332;fill-opacity:1;fill-rule:nonzero;stroke:none"
         id="path4053"
         inkscape:connector-curvature="0"
         inkscape:export-xdpi="27.157324"
         inkscape:export-ydpi="27.157324" /><path
         d="m 2920.43,2047.82 c -16.72,2.72 -33.44,5.46 -50.16,8.19 -3.95,0.65 -7.55,0.64 -11.13,-1.45 -3,-1.76 -5.85,-5.2 -6.64,-8.65 -1.59,-6.95 2.12,-16.46 10.09,-17.76 16.72,-2.73 33.44,-5.47 50.16,-8.19 3.95,-0.65 7.55,-0.65 11.13,1.45 3,1.75 5.85,5.19 6.64,8.64 1.59,6.95 -2.12,16.46 -10.09,17.77"
         style="fill:#353332;fill-opacity:1;fill-rule:nonzero;stroke:none"
         id="path4055"
         inkscape:connector-curvature="0"
         inkscape:export-xdpi="27.157324"
         inkscape:export-ydpi="27.157324" /><path
         d="m 3136.25,4140.85 c -3.56,6.08 -7.27,12.07 -11.08,17.99 -7.63,11.88 -15.73,23.45 -24.25,34.72 -1.57,2.09 -4.13,3.12 -6.58,1.72 -2.06,-1.16 -3.29,-4.51 -1.73,-6.58 7.99,-10.59 15.63,-21.44 22.86,-32.57 3.48,-5.38 6.89,-10.82 10.19,-16.32 3.18,-5.31 7.09,-10.84 6.98,-17.27 -0.11,-6.21 9.51,-6.21 9.63,0 0.12,6.69 -2.71,12.65 -6.02,18.31"
         style="fill:#ffffff;fill-opacity:1;fill-rule:nonzero;stroke:none"
         id="path4057"
         inkscape:connector-curvature="0"
         inkscape:export-xdpi="27.157324"
         inkscape:export-ydpi="27.157324" /><path
         d="m 3148.83,4110.88 c -6.2,0 -6.21,-9.64 0,-9.64 6.2,0 6.21,9.64 0,9.64"
         style="fill:#ffffff;fill-opacity:1;fill-rule:nonzero;stroke:none"
         id="path4059"
         inkscape:connector-curvature="0"
         inkscape:export-xdpi="27.157324"
         inkscape:export-ydpi="27.157324" /><path
         d="m 2802.62,4218.94 c -6.42,-28.25 -8.25,-57.36 -5.21,-86.17 0.64,-6.1 10.28,-6.17 9.64,0 -2.96,27.98 -1.38,56.17 4.86,83.61 1.38,6.03 -7.91,8.61 -9.29,2.56"
         style="fill:#ffffff;fill-opacity:1;fill-rule:nonzero;stroke:none"
         id="path4061"
         inkscape:connector-curvature="0"
         inkscape:export-xdpi="27.157324"
         inkscape:export-ydpi="27.157324" /><path
         d="m 2815.88,4111.59 c -0.24,0.82 -0.65,1.53 -1.24,2.13 l -1.61,1.59 c -0.44,0.48 -0.95,0.81 -1.55,1 -0.58,0.3 -1.19,0.44 -1.85,0.41 -0.67,0.03 -1.28,-0.11 -1.86,-0.41 -0.6,-0.19 -1.11,-0.52 -1.54,-1 -0.26,-0.32 -0.51,-0.65 -0.76,-0.97 -0.43,-0.75 -0.66,-1.56 -0.66,-2.43 0.06,-0.42 0.12,-0.85 0.18,-1.28 0.22,-0.81 0.63,-1.52 1.24,-2.12 l 1.59,-1.6 c 0.44,-0.47 0.96,-0.81 1.55,-1 0.58,-0.3 1.19,-0.44 1.86,-0.42 0.66,-0.02 1.28,0.12 1.85,0.42 0.6,0.19 1.12,0.53 1.56,1 0.24,0.32 0.49,0.64 0.75,0.97 0.43,0.75 0.65,1.56 0.65,2.43 -0.06,0.43 -0.12,0.85 -0.16,1.28"
         style="fill:#ffffff;fill-opacity:1;fill-rule:nonzero;stroke:none"
         id="path4063"
         inkscape:connector-curvature="0"
         inkscape:export-xdpi="27.157324"
         inkscape:export-ydpi="27.157324" /><path
         d="m 3019.7,4554.04 c -6.95,16.35 -19.28,30.23 -34.51,39.34 -5.34,3.18 -10.18,-5.14 -4.86,-8.33 13.91,-8.32 24.68,-20.87 31.06,-35.87 1.02,-2.39 4.54,-2.92 6.58,-1.73 2.49,1.45 2.76,4.19 1.73,6.59"
         style="fill:#ffffff;fill-opacity:1;fill-rule:nonzero;stroke:none"
         id="path4065"
         inkscape:connector-curvature="0"
         inkscape:export-xdpi="27.157324"
         inkscape:export-ydpi="27.157324" /><path
         d="m 3027.16,4527.81 c -6.19,0 -6.2,-9.63 0,-9.63 6.21,0 6.22,9.63 0,9.63"
         style="fill:#ffffff;fill-opacity:1;fill-rule:nonzero;stroke:none"
         id="path4067"
         inkscape:connector-curvature="0"
         inkscape:export-xdpi="27.157324"
         inkscape:export-ydpi="27.157324" /><path
         d="m 3619.56,2355.41 c -30.99,0 -31.04,-48.16 0,-48.16 30.98,0 31.03,48.16 0,48.16"
         style="fill:#ffffff;fill-opacity:1;fill-rule:nonzero;stroke:none"
         id="path4069"
         inkscape:connector-curvature="0"
         inkscape:export-xdpi="27.157324"
         inkscape:export-ydpi="27.157324" /><path
         d="m 1597.73,1755.03 c -0.98,2.97 -2.64,5.56 -4.98,7.74 -2.19,2.35 -4.77,4.01 -7.75,4.98 -2.87,1.5 -5.96,2.2 -9.28,2.07 -2.13,-0.28 -4.27,-0.57 -6.4,-0.86 -4.08,-1.14 -7.62,-3.2 -10.62,-6.19 -1.26,-1.62 -2.51,-3.24 -3.77,-4.87 -2.18,-3.75 -3.27,-7.81 -3.28,-12.15 v -3.43 c -0.13,-3.32 0.56,-6.41 2.07,-9.28 0.96,-2.99 2.62,-5.56 4.98,-7.75 2.18,-2.34 4.76,-4 7.74,-4.98 2.87,-1.51 5.97,-2.2 9.28,-2.07 2.14,0.28 4.27,0.57 6.41,0.86 4.07,1.14 7.61,3.21 10.62,6.19 1.25,1.63 2.51,3.25 3.76,4.87 2.18,3.76 3.28,7.81 3.29,12.16 v 3.43 c 0.13,3.31 -0.57,6.4 -2.07,9.28"
         style="fill:#ffffff;fill-opacity:1;fill-rule:nonzero;stroke:none"
         id="path4071"
         inkscape:connector-curvature="0"
         inkscape:export-xdpi="27.157324"
         inkscape:export-ydpi="27.157324" /><g
         sodipodi:type="inkscape:box3d"
         id="g4191"
         style="fill:#000000;fill-opacity:0"
         inkscape:perspectiveID="#perspective4175"
         inkscape:corner0="-0.90683233 : 0.089322401 : 0 : 1"
         inkscape:corner7="-0.8492463 : 0.07446514 : 0.25 : 1"
         inkscape:export-xdpi="27.157324"
         inkscape:export-ydpi="27.157324"><path
           sodipodi:type="inkscape:box3dside"
           id="path4193"
           style="fill:#353564;fill-rule:evenodd;stroke:none;stroke-linejoin:round"
           inkscape:box3dsidetype="6"
           d="m 902.15462,3804.7296 v -1196.01 l 3679.42988,267.8578 v 324.7085 z"
           points="902.15462,2608.7196 4581.5845,2876.5774 4581.5845,3201.2859 902.15462,3804.7296 " /><path
           sodipodi:type="inkscape:box3dside"
           id="path4197"
           style="fill:#8686bf;fill-rule:evenodd;stroke:none;stroke-linejoin:round"
           inkscape:box3dsidetype="3"
           d="m 902.15462,3804.7296 873.74018,-484.6472 v -739.1491 l -873.74018,27.7863 z"
           points="1775.8948,3320.0824 1775.8948,2580.9333 902.15462,2608.7196 902.15462,3804.7296 " /><path
           sodipodi:type="inkscape:box3dside"
           id="path4199"
           style="fill:#d7d7ff;fill-rule:evenodd;stroke:none;stroke-linejoin:round"
           inkscape:box3dsidetype="14"
           d="m 1775.8948,3320.0824 v -739.1491 l 2605.6561,246.702 v 278.0497 z"
           points="1775.8948,2580.9333 4381.5509,2827.6353 4381.5509,3105.685 1775.8948,3320.0824 " /><path
           sodipodi:type="inkscape:box3dside"
           id="path4195"
           style="fill:#4d4d9f;fill-rule:evenodd;stroke:none;stroke-linejoin:round"
           inkscape:box3dsidetype="5"
           d="m 902.15462,3804.7296 873.74018,-484.6472 2605.6561,-214.3974 200.0336,95.6009 z"
           points="1775.8948,3320.0824 4381.5509,3105.685 4581.5845,3201.2859 902.15462,3804.7296 " /><path
           sodipodi:type="inkscape:box3dside"
           id="path4203"
           style="fill:#e9e9ff;fill-rule:evenodd;stroke:none;stroke-linejoin:round"
           inkscape:box3dsidetype="11"
           d="m 4581.5845,3201.2859 -200.0336,-95.6009 v -278.0497 l 200.0336,48.9421 z"
           points="4381.5509,3105.685 4381.5509,2827.6353 4581.5845,2876.5774 4581.5845,3201.2859 " /><path
           sodipodi:type="inkscape:box3dside"
           id="path4201"
           style="fill:#afafde;fill-rule:evenodd;stroke:none;stroke-linejoin:round"
           inkscape:box3dsidetype="13"
           d="m 902.15462,2608.7196 873.74018,-27.7863 2605.6561,246.702 200.0336,48.9421 z"
           points="1775.8948,2580.9333 4381.5509,2827.6353 4581.5845,2876.5774 902.15462,2608.7196 " /></g><ellipse
         style="fill:#000000;fill-opacity:0;stroke-width:7.5"
         id="path4219"
         cx="3118.4717"
         cy="-1264.4373"
         transform="scale(1,-1)"
         rx="1150.78"
         ry="440.42197"
         inkscape:export-xdpi="27.157324"
         inkscape:export-ydpi="27.157324" /><ellipse
         style="fill:#000000;fill-opacity:0;stroke-width:7.5"
         id="path4223"
         cx="2213.1621"
         cy="-1442.1626"
         transform="scale(1,-1)"
         rx="259.67773"
         ry="134.8324"
         inkscape:export-xdpi="27.157324"
         inkscape:export-ydpi="27.157324" /><text
         id="text7071-5"
         style="font-style:normal;font-variant:normal;font-weight:normal;font-stretch:normal;font-size:401.00564575px;line-height:1.25;font-family:Dyuthi;-inkscape-font-specification:Dyuthi;letter-spacing:0px;word-spacing:0px;display:inline;fill:#211311;fill-opacity:1;stroke:none;stroke-width:10.02514076"
         xml:space="preserve"
         transform="matrix(-1.1581825,0,0,1,6573.9665,255.21124)"
         inkscape:export-xdpi="27.157324"
         inkscape:export-ydpi="27.157324"><textPath
           xlink:href="#path7101"
           id="textPath7106"><tspan
   id="tspan7069-4"
   style="font-style:normal;font-variant:normal;font-weight:normal;font-stretch:normal;font-family:Dyuthi;-inkscape-font-specification:Dyuthi;fill:#211311;fill-opacity:1;stroke-width:10.02514076">F<tspan
   style="fill:#211311;fill-opacity:1"
   id="tspan7109">O</tspan>OLS 100</tspan></textPath></text>
<path
         style="fill:none;stroke:#000000;stroke-width:8.22576237px;stroke-linecap:butt;stroke-linejoin:miter;stroke-opacity:0"
         d="M 3915.1567,1034.0504 C 3412.2684,1367.2693 2846.2505,1399.131 2250.49,1081.76"
         id="path7101"
         inkscape:connector-curvature="0"
         sodipodi:nodetypes="cc"
         inkscape:export-xdpi="27.157324"
         inkscape:export-ydpi="27.157324" /><path
         style="fill:#ffffff;stroke:none;stroke-width:72.99689484px;stroke-linecap:butt;stroke-linejoin:miter;stroke-opacity:1"
         d="M 629.91061,1891.18 5479.0772,1861.4702"
         id="path7237"
         inkscape:connector-curvature="0"
         sodipodi:nodetypes="cc"
         inkscape:export-xdpi="27.157324"
         inkscape:export-ydpi="27.157324" /></g></g></svg>